<?xml version="1.0" encoding="UTF-8"?>
<svg id="Blue_Favicon" data-name="Blue Favicon" xmlns="http://www.w3.org/2000/svg" viewBox="0 0 32 32">
  <defs>
    <style>
      .cls-1 {
        fill: #fff;
      }

      .cls-2 {
        fill: #00aeef;
      }
    </style>
  </defs>
  <path class="cls-2" d="M17.33,15.77c1.32,3.32,2.6,6.49,3.83,9.68,.34,.88,.69,1.81,.71,2.73,.03,1.9-1.46,3.23-3.36,3.18-3.05-.08-6.09-.18-9.14-.3-2.57-.1-3.98-1.74-3.69-4.3,.77-7,1.55-14.01,2.34-21.01,.25-2.22,1.73-3.59,4.01-3.66,3-.1,6-.19,9.01-.26,3.63-.08,6.28,1.81,7.01,4.98,.73,3.19-.95,6.85-4.07,8.07-1.6,.62-3.46,.58-5.21,.82-.41,.06-.84,.04-1.44,.07Z"/>
  <path d="M15.48,14.59c1.32,3.32,2.6,6.49,3.83,9.68,.34,.88,.69,1.81,.71,2.73,.03,1.9-1.46,3.23-3.36,3.18-3.05-.08-6.09-.18-9.14-.3-2.57-.1-3.98-1.74-3.69-4.3,.77-7,1.55-14.01,2.34-21.01,.25-2.22,1.73-3.59,4.01-3.66,3-.1,6-.19,9.01-.26,3.63-.08,6.28,1.81,7.01,4.98,.73,3.19-.95,6.85-4.07,8.07-1.6,.62-3.46,.58-5.21,.82-.41,.06-.84,.04-1.44,.07Z"/>
  <path class="cls-1" d="M12.44,13.45c.77,1.93,1.51,3.77,2.23,5.63,.2,.51,.4,1.06,.41,1.59,.02,1.11-.85,1.88-1.96,1.85-1.77-.05-3.54-.11-5.32-.17-1.5-.06-2.31-1.01-2.15-2.5,.45-4.08,.9-8.15,1.36-12.23,.14-1.29,1-2.09,2.34-2.13,1.75-.06,3.49-.11,5.24-.15,2.11-.05,3.66,1.06,4.08,2.9,.43,1.86-.55,3.99-2.37,4.7-.93,.36-2.01,.34-3.03,.48-.24,.03-.49,.03-.84,.04Z"/>
</svg>