<svg width="955" height="578" viewBox="0 0 955 578" fill="none" xmlns="http://www.w3.org/2000/svg">
<path d="M950.773 417.691L922.782 428.887L927.935 442.508C928.196 443.198 929.09 443.377 929.597 442.841L951.87 419.307C952.607 418.528 951.768 417.293 950.773 417.691Z" fill="#00AEEF"/>
<path d="M899.54 437.803C899.432 438.057 899.549 438.351 899.803 438.46L903.939 440.232C904.193 440.341 904.487 440.223 904.596 439.97C904.705 439.716 904.587 439.422 904.333 439.313L900.657 437.737L902.232 434.061C902.341 433.807 902.223 433.513 901.97 433.404C901.716 433.295 901.422 433.413 901.313 433.667L899.54 437.803ZM950.773 417.691L950.958 418.155L950.773 417.691ZM951.87 419.307L951.507 418.963L951.87 419.307ZM929.597 442.841L929.96 443.185L929.597 442.841ZM927.935 442.508L927.468 442.684L927.935 442.508ZM900.186 438.464L922.967 429.352L922.596 428.423L899.814 437.536L900.186 438.464ZM922.967 429.352L950.958 418.155L950.587 417.227L922.596 428.423L922.967 429.352ZM951.507 418.963L929.234 442.497L929.96 443.185L952.234 419.65L951.507 418.963ZM928.403 442.331L923.249 428.71L922.314 429.064L927.468 442.684L928.403 442.331ZM923.249 428.71L914.968 406.823L914.032 407.177L922.314 429.064L923.249 428.71ZM929.234 442.497C928.98 442.765 928.534 442.676 928.403 442.331L927.468 442.684C927.859 443.72 929.199 443.989 929.96 443.185L929.234 442.497ZM950.958 418.155C951.456 417.956 951.876 418.574 951.507 418.963L952.234 419.65C953.339 418.482 952.08 416.629 950.587 417.227L950.958 418.155Z" fill="black"/>
<path d="M923.565 216.449L910.09 199.38C909.609 198.772 908.648 198.918 908.371 199.642L900.286 220.754C900.119 221.19 900.276 221.684 900.665 221.943L914.14 230.927C914.611 231.24 915.247 231.102 915.545 230.622L923.63 217.596C923.852 217.238 923.826 216.78 923.565 216.449Z" fill="#FF9700" stroke="black"/>
<path d="M29.5535 274.87L7.87588 273.134C7.10269 273.072 6.55646 273.876 6.89862 274.572L16.8711 294.86C17.0773 295.28 17.5464 295.5 18.001 295.392L33.7528 291.627C34.3024 291.496 34.634 290.935 34.4849 290.39L30.4382 275.603C30.3271 275.197 29.9733 274.904 29.5535 274.87Z" fill="#FF9700" stroke="black"/>
<path d="M677.554 12.8699L655.876 11.1342C655.103 11.0722 654.556 11.876 654.899 12.5721L664.871 32.8602C665.077 33.2796 665.546 33.5003 666.001 33.3917L681.753 29.6269C682.302 29.4955 682.634 28.9353 682.485 28.3903L678.438 13.6028C678.327 13.1965 677.973 12.9035 677.554 12.8699Z" fill="#00AEEF" stroke="black"/>
<path d="M155.554 524.87L133.876 523.134C133.103 523.072 132.556 523.876 132.899 524.572L142.871 544.86C143.077 545.28 143.546 545.5 144.001 545.392L159.753 541.627C160.302 541.496 160.634 540.935 160.485 540.39L156.438 525.603C156.327 525.197 155.973 524.904 155.554 524.87Z" fill="#00AEEF" stroke="black"/>
<path d="M83.6321 162.335C84.1459 162.132 84.3982 161.552 84.1957 161.038L80.8956 152.665C80.6931 152.151 80.1124 151.899 79.5986 152.101C79.0848 152.304 78.8324 152.884 79.0349 153.398L81.9683 160.841L74.5256 163.774C74.0118 163.977 73.7594 164.558 73.9619 165.071C74.1644 165.585 74.7451 165.838 75.2589 165.635L83.6321 162.335ZM69.3846 130.849L70.3844 130.865L69.3846 130.849ZM69.5956 155.464L69.1971 156.381L69.5956 155.464ZM68.9943 154.53L69.9942 154.547L68.9943 154.53ZM83.6639 160.487L69.9942 154.547L69.1971 156.381L82.8668 162.322L83.6639 160.487ZM69.9942 154.547L70.3844 130.865L68.3847 130.832L67.9945 154.514L69.9942 154.547ZM68.1435 128.847L44.7599 131.687L45.0011 133.673L68.3847 130.832L68.1435 128.847ZM70.3844 130.865C70.4044 129.652 69.3481 128.701 68.1435 128.847L68.3847 130.832L70.3844 130.865ZM69.9942 154.547L69.9942 154.547L67.9945 154.514C67.9812 155.322 68.4557 156.059 69.1971 156.381L69.9942 154.547Z" fill="#00AEEF"/>
<path d="M506.23 551.725C506.781 551.757 507.253 551.335 507.285 550.783L507.793 541.798C507.824 541.246 507.403 540.774 506.851 540.743C506.3 540.712 505.827 541.133 505.796 541.685L505.344 549.672L497.357 549.22C496.806 549.189 496.333 549.611 496.302 550.162C496.271 550.713 496.693 551.186 497.244 551.217L506.23 551.725ZM506.473 517.167L507.374 517.6L506.473 517.167ZM496.359 539.609L495.613 540.275L496.359 539.609ZM496.204 538.509L497.105 538.943L496.204 538.509ZM507.032 550.061L497.105 538.943L495.613 540.275L505.54 551.393L507.032 550.061ZM497.105 538.943L507.374 517.6L505.572 516.733L495.303 538.076L497.105 538.943ZM506.184 514.829L483.759 507.619L483.147 509.523L505.572 516.733L506.184 514.829ZM507.374 517.6C507.9 516.507 507.339 515.2 506.184 514.829L505.572 516.733L507.374 517.6ZM497.105 538.943L497.105 538.943L495.303 538.076C494.952 538.804 495.075 539.672 495.613 540.275L497.105 538.943Z" fill="#FF9700"/>
</svg>
