<?xml version="1.0" encoding="UTF-8"?>
<svg id="Logo_Mark" data-name="Logo Mark" xmlns="http://www.w3.org/2000/svg" viewBox="0 0 1000 1000">
  <defs>
    <style>
      .cls-1 {
        fill: #fff;
      }

      .cls-2 {
        fill: #00aeef;
      }
    </style>
  </defs>
  <path class="cls-2" d="M516.23,497.21c16.11,40.57,31.82,79.36,46.84,118.42,4.12,10.72,8.5,22.19,8.7,33.39,.41,23.27-17.82,39.53-41.13,38.88-37.27-1.02-74.53-2.22-111.79-3.66-31.44-1.22-48.64-21.33-45.19-52.6,9.46-85.7,19.02-171.38,28.57-257.07,3.03-27.15,21.12-43.87,49.11-44.83,36.73-1.26,73.47-2.31,110.22-3.14,44.45-1.01,76.87,22.19,85.77,60.96,8.96,39.05-11.6,83.83-49.78,98.74-19.56,7.64-42.34,7.1-63.69,10.05-5.06,.7-10.23,.53-17.62,.86Z"/>
  <path d="M493.6,482.73c16.11,40.57,31.82,79.36,46.84,118.42,4.12,10.72,8.5,22.19,8.7,33.39,.41,23.27-17.82,39.53-41.13,38.88-37.27-1.02-74.53-2.22-111.79-3.66-31.44-1.22-48.64-21.33-45.19-52.6,9.46-85.7,19.02-171.38,28.57-257.07,3.03-27.15,21.12-43.87,49.11-44.83,36.73-1.26,73.47-2.31,110.22-3.14,44.45-1.01,76.87,22.19,85.77,60.96,8.96,39.05-11.6,83.83-49.78,98.74-19.56,7.64-42.34,7.1-63.69,10.05-5.06,.7-10.23,.53-17.62,.86Z"/>
  <path class="cls-1" d="M456.44,468.74c9.38,23.61,18.52,46.18,27.26,68.91,2.4,6.24,4.95,12.91,5.06,19.43,.24,13.54-10.37,23-23.94,22.63-21.69-.6-43.37-1.29-65.05-2.13-18.29-.71-28.31-12.41-26.3-30.61,5.5-49.87,11.07-99.73,16.63-149.6,1.76-15.8,12.29-25.53,28.58-26.09,21.38-.74,42.76-1.34,64.14-1.83,25.87-.59,44.73,12.91,49.91,35.48,5.22,22.72-6.75,48.79-28.97,57.46-11.38,4.45-24.64,4.13-37.07,5.85-2.94,.41-5.95,.31-10.25,.5Z"/>
</svg>