<svg width="41" height="38" viewBox="0 0 41 38" fill="none" xmlns="http://www.w3.org/2000/svg">
<path d="M39.6321 34.3349C40.1459 34.1324 40.3983 33.5517 40.1958 33.0379L36.8957 24.6648C36.6931 24.151 36.1124 23.8986 35.5986 24.1011C35.0848 24.3036 34.8325 24.8843 35.035 25.3981L37.9684 32.8409L30.5256 35.7744C30.0118 35.9769 29.7595 36.5576 29.962 37.0714C30.1645 37.5852 30.7452 37.8376 31.259 37.6351L39.6321 34.3349ZM25.3846 2.84888L26.3845 2.86536L25.3846 2.84888ZM25.5957 27.4639L25.1971 28.3811L25.5957 27.4639ZM24.9944 26.5303L25.9943 26.5468L24.9944 26.5303ZM39.664 32.4875L25.9943 26.5468L25.1971 28.3811L38.8669 34.3217L39.664 32.4875ZM25.9943 26.5468L26.3845 2.86536L24.3848 2.83241L23.9945 26.5139L25.9943 26.5468ZM24.1436 0.847L0.759962 3.68733L1.00112 5.67273L24.3848 2.83241L24.1436 0.847ZM26.3845 2.86536C26.4045 1.65208 25.3482 0.700683 24.1436 0.847L24.3848 2.83241L26.3845 2.86536ZM25.9943 26.5468L25.9943 26.5468L23.9945 26.5139C23.9812 27.3221 24.4557 28.0589 25.1971 28.3811L25.9943 26.5468Z" fill="#34B5E5"/>
</svg>
