<svg width="41" height="38" viewBox="0 0 41 38" fill="none" xmlns="http://www.w3.org/2000/svg">
<path d="M39.6321 34.3349C40.1459 34.1324 40.3982 33.5517 40.1957 33.0379L36.8956 24.6648C36.6931 24.151 36.1124 23.8986 35.5986 24.1011C35.0848 24.3036 34.8324 24.8843 35.0349 25.3981L37.9683 32.8409L30.5256 35.7744C30.0118 35.9769 29.7594 36.5576 29.9619 37.0714C30.1644 37.5852 30.7451 37.8376 31.2589 37.6351L39.6321 34.3349ZM25.3846 2.84888L26.3844 2.86536L25.3846 2.84888ZM25.5956 27.4639L25.1971 28.3811L25.5956 27.4639ZM24.9943 26.5303L25.9942 26.5468L24.9943 26.5303ZM39.6639 32.4875L25.9942 26.5468L25.1971 28.3811L38.8668 34.3217L39.6639 32.4875ZM25.9942 26.5468L26.3844 2.86536L24.3847 2.83241L23.9945 26.5139L25.9942 26.5468ZM24.1435 0.847L0.759901 3.68733L1.00106 5.67273L24.3847 2.83241L24.1435 0.847ZM26.3844 2.86536C26.4044 1.65208 25.3481 0.700683 24.1435 0.847L24.3847 2.83241L26.3844 2.86536ZM25.9942 26.5468L25.9942 26.5468L23.9945 26.5139C23.9812 27.3221 24.4557 28.0589 25.1971 28.3811L25.9942 26.5468Z" fill="#00AEEF"/>
</svg>
