<svg width="54" height="38" viewBox="0 0 54 38" fill="none" xmlns="http://www.w3.org/2000/svg">
<path d="M51.7727 11.6909L23.7817 22.8873L28.9353 36.5075C29.1964 37.1977 30.0896 37.377 30.5969 36.841L52.8704 13.3068C53.6074 12.528 52.7682 11.2927 51.7727 11.6909Z" fill="#00AEEF"/>
<path d="M0.540427 31.803C0.43165 32.0569 0.549225 32.3508 0.80304 32.4596L4.93919 34.2322C5.19301 34.341 5.48695 34.2234 5.59573 33.9696C5.7045 33.7158 5.58693 33.4218 5.33311 33.3131L1.65653 31.7374L3.23221 28.0608C3.34099 27.807 3.22341 27.5131 2.9696 27.4043C2.71578 27.2955 2.42184 27.4131 2.31306 27.6669L0.540427 31.803ZM51.7727 11.6909L51.9584 12.1552L51.7727 11.6909ZM52.8704 13.3068L52.5072 12.9631L52.8704 13.3068ZM30.5969 36.841L30.96 37.1847L30.5969 36.841ZM28.9353 36.5075L28.4676 36.6845L28.9353 36.5075ZM1.1857 32.4642L23.9674 23.3516L23.596 22.4231L0.814305 31.5358L1.1857 32.4642ZM23.9674 23.3516L51.9584 12.1552L51.587 11.2267L23.596 22.4231L23.9674 23.3516ZM52.5072 12.9631L30.2337 36.4973L30.96 37.1847L53.2335 13.6505L52.5072 12.9631ZM29.4029 36.3306L24.2493 22.7104L23.314 23.0643L28.4676 36.6845L29.4029 36.3306ZM24.2493 22.7104L15.9676 0.823054L15.0324 1.17695L23.314 23.0643L24.2493 22.7104ZM30.2337 36.4973C29.9801 36.7653 29.5335 36.6757 29.4029 36.3306L28.4676 36.6845C28.8594 37.7198 30.1991 37.9887 30.96 37.1847L30.2337 36.4973ZM51.9584 12.1552C52.4562 11.9561 52.8757 12.5737 52.5072 12.9631L53.2335 13.6505C54.3391 12.4823 53.0803 10.6293 51.587 11.2267L51.9584 12.1552Z" fill="black"/>
</svg>
