<svg width="25" height="45" viewBox="0 0 25 45" fill="none" xmlns="http://www.w3.org/2000/svg">
<path d="M23.2296 44.7253C23.781 44.7565 24.2533 44.3348 24.2845 43.7834L24.793 34.7978C24.8242 34.2464 24.4025 33.7741 23.8511 33.7429C23.2997 33.7117 22.8274 34.1334 22.7962 34.6848L22.3442 42.672L14.357 42.22C13.8056 42.1888 13.3333 42.6105 13.3021 43.1619C13.2709 43.7133 13.6926 44.1856 14.244 44.2168L23.2296 44.7253ZM23.4727 10.1666L24.3738 10.6002L23.4727 10.1666ZM13.3591 32.609L12.6132 33.275L13.3591 32.609ZM13.2039 31.5094L14.105 31.943L13.2039 31.5094ZM24.032 43.0609L14.105 31.943L12.6132 33.275L22.5402 44.3929L24.032 43.0609ZM14.105 31.943L24.3738 10.6002L22.5716 9.73305L12.3028 31.0758L14.105 31.943ZM23.1838 7.82906L0.758963 0.618727L0.146765 2.52273L22.5716 9.73305L23.1838 7.82906ZM24.3738 10.6002C24.8999 9.50672 24.339 8.20049 23.1838 7.82906L22.5716 9.73305L24.3738 10.6002ZM14.105 31.943L14.105 31.943L12.3028 31.0758C11.9523 31.8043 12.0748 32.672 12.6132 33.275L14.105 31.943Z" fill="#FF9700"/>
</svg>
