<svg width="86" height="60" viewBox="0 0 86 60" fill="none" xmlns="http://www.w3.org/2000/svg">
<path d="M82.778 16.8011L36.6223 35.3099L44.9989 57.5036C45.2598 58.1949 46.1544 58.3742 46.6616 57.837L83.8774 18.4158C84.6133 17.6362 83.7731 16.4021 82.778 16.8011Z" fill="#34B5E5"/>
<path d="M0.0805139 49.2015C-0.136602 49.7093 0.0990593 50.297 0.606877 50.5141L8.88225 54.0522C9.39007 54.2693 9.97775 54.0336 10.1949 53.5258C10.412 53.018 10.1763 52.4303 9.6685 52.2132L2.31261 49.0682L5.45759 41.7123C5.6747 41.2045 5.43904 40.6169 4.93123 40.3997C4.42341 40.1826 3.83573 40.4183 3.61862 40.9261L0.0805139 49.2015ZM82.778 16.8011L83.1502 17.7293H83.1502L82.778 16.8011ZM83.8774 18.4158L83.1502 17.7293L83.1502 17.7293L83.8774 18.4158ZM46.6616 57.837L45.9344 57.1505L45.9344 57.1505L46.6616 57.837ZM44.9989 57.5036L44.0633 57.8567L44.0633 57.8567L44.9989 57.5036ZM1.3722 50.5228L36.9945 36.238L36.2501 34.3817L0.627805 48.6664L1.3722 50.5228ZM36.9945 36.238L83.1502 17.7293L82.4058 15.873L36.2501 34.3817L36.9945 36.238ZM83.1502 17.7293L45.9344 57.1505L47.3887 58.5235L84.6045 19.1022L83.1502 17.7293ZM45.9344 57.1505L37.5579 34.9567L35.6867 35.663L44.0633 57.8567L45.9344 57.1505ZM37.5579 34.9567L24.6083 0.646885L22.7371 1.35312L35.6867 35.663L37.5579 34.9567ZM45.9344 57.1505V57.1505L44.0633 57.8567C44.5851 59.2392 46.3743 59.598 47.3888 58.5234L45.9344 57.1505ZM83.1502 17.7293V17.7293L84.6045 19.1022C86.0764 17.5431 84.3959 15.075 82.4058 15.873L83.1502 17.7293Z" fill="black"/>
</svg>
