<svg width="25" height="45" viewBox="0 0 25 45" fill="none" xmlns="http://www.w3.org/2000/svg">
<path d="M23.2297 44.7253C23.7811 44.7565 24.2534 44.3348 24.2846 43.7834L24.793 34.7978C24.8243 34.2464 24.4025 33.7741 23.8511 33.7429C23.2997 33.7117 22.8274 34.1334 22.7962 34.6848L22.3443 42.672L14.357 42.22C13.8056 42.1888 13.3333 42.6105 13.3021 43.1619C13.2709 43.7133 13.6926 44.1856 14.244 44.2168L23.2297 44.7253ZM23.4728 10.1666L24.3739 10.6002L23.4728 10.1666ZM13.3592 32.609L12.6132 33.275L13.3592 32.609ZM13.204 31.5094L14.1051 31.943L13.204 31.5094ZM24.0321 43.0609L14.1051 31.943L12.6132 33.275L22.5402 44.3929L24.0321 43.0609ZM14.1051 31.943L24.3739 10.6002L22.5717 9.73305L12.3028 31.0758L14.1051 31.943ZM23.1839 7.82906L0.759024 0.618727L0.146826 2.52273L22.5717 9.73305L23.1839 7.82906ZM24.3739 10.6002C24.9 9.50672 24.3391 8.20049 23.1839 7.82906L22.5717 9.73305L24.3739 10.6002ZM14.1051 31.943L14.1051 31.943L12.3028 31.0758C11.9524 31.8043 12.0749 32.672 12.6132 33.275L14.1051 31.943Z" fill="#FF9700"/>
</svg>
